<mxfile host="app.diagrams.net" modified="2022-11-18T22:10:53.787Z" agent="5.0 (Macintosh; Intel Mac OS X 10_15_7) AppleWebKit/605.1.15 (KHTML, like Gecko) Version/16.1 Safari/605.1.15" etag="1m91E9b0uZ7Wbc0d0_x8" version="20.5.3" type="github">
  <diagram id="UiH3Iwp8ihbxu1lXQcd2" name="Seite-1">
    <mxGraphModel dx="830" dy="568" grid="1" gridSize="10" guides="1" tooltips="1" connect="1" arrows="1" fold="1" page="1" pageScale="1" pageWidth="827" pageHeight="1169" math="0" shadow="0">
      <root>
        <mxCell id="0" />
        <mxCell id="1" parent="0" />
        <mxCell id="aZ2FEfgqHKBh5IlZA_Mn-2" value="" style="whiteSpace=wrap;html=1;aspect=fixed;strokeColor=none;fillColor=#f5f5f5;fontColor=#333333;" vertex="1" parent="1">
          <mxGeometry x="103" y="70" width="520" height="520" as="geometry" />
        </mxCell>
        <mxCell id="1wnYQfuYENzwQwFTmS7A-9" style="edgeStyle=orthogonalEdgeStyle;curved=1;orthogonalLoop=1;jettySize=auto;html=1;entryX=0.5;entryY=0;entryDx=0;entryDy=0;" parent="1" source="1wnYQfuYENzwQwFTmS7A-1" target="1wnYQfuYENzwQwFTmS7A-3" edge="1">
          <mxGeometry relative="1" as="geometry" />
        </mxCell>
        <mxCell id="1wnYQfuYENzwQwFTmS7A-1" value="No oficial Information" style="rounded=1;whiteSpace=wrap;html=1;fontSize=18;fontStyle=1;fillColor=#dae8fc;strokeColor=#6c8ebf;" parent="1" vertex="1">
          <mxGeometry x="120" y="80" width="160" height="120" as="geometry" />
        </mxCell>
        <mxCell id="1wnYQfuYENzwQwFTmS7A-12" style="edgeStyle=orthogonalEdgeStyle;curved=1;orthogonalLoop=1;jettySize=auto;html=1;entryX=0.5;entryY=0;entryDx=0;entryDy=0;" parent="1" source="1wnYQfuYENzwQwFTmS7A-2" target="1wnYQfuYENzwQwFTmS7A-3" edge="1">
          <mxGeometry relative="1" as="geometry" />
        </mxCell>
        <mxCell id="1wnYQfuYENzwQwFTmS7A-2" value="Oficial Information&amp;nbsp;" style="rounded=1;whiteSpace=wrap;html=1;fontSize=19;fontStyle=1;fillColor=#d5e8d4;strokeColor=#82b366;" parent="1" vertex="1">
          <mxGeometry x="440" y="80" width="160" height="120" as="geometry" />
        </mxCell>
        <mxCell id="1wnYQfuYENzwQwFTmS7A-7" style="edgeStyle=orthogonalEdgeStyle;orthogonalLoop=1;jettySize=auto;html=1;entryX=0;entryY=0.5;entryDx=0;entryDy=0;curved=1;exitX=0.5;exitY=1;exitDx=0;exitDy=0;" parent="1" source="1wnYQfuYENzwQwFTmS7A-3" target="1wnYQfuYENzwQwFTmS7A-5" edge="1">
          <mxGeometry relative="1" as="geometry">
            <mxPoint x="390" y="640" as="sourcePoint" />
          </mxGeometry>
        </mxCell>
        <mxCell id="1wnYQfuYENzwQwFTmS7A-14" value="" style="edgeStyle=orthogonalEdgeStyle;curved=1;orthogonalLoop=1;jettySize=auto;html=1;fontSize=19;" parent="1" source="1wnYQfuYENzwQwFTmS7A-3" target="1wnYQfuYENzwQwFTmS7A-13" edge="1">
          <mxGeometry relative="1" as="geometry" />
        </mxCell>
        <mxCell id="1wnYQfuYENzwQwFTmS7A-21" style="edgeStyle=orthogonalEdgeStyle;curved=1;orthogonalLoop=1;jettySize=auto;html=1;entryX=1;entryY=0.5;entryDx=0;entryDy=0;fontSize=19;" parent="1" source="1wnYQfuYENzwQwFTmS7A-3" target="1wnYQfuYENzwQwFTmS7A-4" edge="1">
          <mxGeometry relative="1" as="geometry" />
        </mxCell>
        <mxCell id="1wnYQfuYENzwQwFTmS7A-22" style="edgeStyle=orthogonalEdgeStyle;curved=1;orthogonalLoop=1;jettySize=auto;html=1;exitX=0;exitY=0.5;exitDx=0;exitDy=0;fontSize=19;" parent="1" source="1wnYQfuYENzwQwFTmS7A-3" target="1wnYQfuYENzwQwFTmS7A-17" edge="1">
          <mxGeometry relative="1" as="geometry" />
        </mxCell>
        <mxCell id="1wnYQfuYENzwQwFTmS7A-3" value="Blockchain Markets" style="ellipse;whiteSpace=wrap;html=1;aspect=fixed;fontSize=19;fontStyle=1;fillColor=#fff2cc;strokeColor=#d6b656;" parent="1" vertex="1">
          <mxGeometry x="280" y="240" width="166" height="166" as="geometry" />
        </mxCell>
        <mxCell id="1wnYQfuYENzwQwFTmS7A-4" value="Behavioral Finance" style="shape=hexagon;perimeter=hexagonPerimeter2;whiteSpace=wrap;html=1;fixedSize=1;fontSize=18;fontStyle=1;fillColor=#ffe6cc;strokeColor=#d79b00;" parent="1" vertex="1">
          <mxGeometry x="105" y="440" width="180" height="120" as="geometry" />
        </mxCell>
        <mxCell id="1wnYQfuYENzwQwFTmS7A-5" value="Adaptative Markets" style="shape=hexagon;perimeter=hexagonPerimeter2;whiteSpace=wrap;html=1;fixedSize=1;strokeWidth=1;fontSize=18;fontStyle=1;fillColor=#e1d5e7;strokeColor=#9673a6;" parent="1" vertex="1">
          <mxGeometry x="440" y="440" width="180" height="120" as="geometry" />
        </mxCell>
        <mxCell id="1wnYQfuYENzwQwFTmS7A-6" style="edgeStyle=orthogonalEdgeStyle;rounded=0;orthogonalLoop=1;jettySize=auto;html=1;exitX=0.5;exitY=1;exitDx=0;exitDy=0;" parent="1" source="1wnYQfuYENzwQwFTmS7A-3" target="1wnYQfuYENzwQwFTmS7A-3" edge="1">
          <mxGeometry relative="1" as="geometry" />
        </mxCell>
        <mxCell id="1wnYQfuYENzwQwFTmS7A-15" style="edgeStyle=orthogonalEdgeStyle;curved=1;orthogonalLoop=1;jettySize=auto;html=1;entryX=0.5;entryY=0;entryDx=0;entryDy=0;fontSize=19;" parent="1" source="1wnYQfuYENzwQwFTmS7A-13" target="1wnYQfuYENzwQwFTmS7A-5" edge="1">
          <mxGeometry relative="1" as="geometry" />
        </mxCell>
        <mxCell id="1wnYQfuYENzwQwFTmS7A-13" value="Beliefs" style="rhombus;whiteSpace=wrap;html=1;strokeWidth=1;fontSize=19;fillColor=#f5f5f5;fontColor=#333333;strokeColor=#666666;fontStyle=1" parent="1" vertex="1">
          <mxGeometry x="460" y="263" width="140" height="120" as="geometry" />
        </mxCell>
        <mxCell id="1wnYQfuYENzwQwFTmS7A-18" style="edgeStyle=orthogonalEdgeStyle;curved=1;orthogonalLoop=1;jettySize=auto;html=1;fontSize=19;" parent="1" source="1wnYQfuYENzwQwFTmS7A-17" target="1wnYQfuYENzwQwFTmS7A-4" edge="1">
          <mxGeometry relative="1" as="geometry" />
        </mxCell>
        <mxCell id="1wnYQfuYENzwQwFTmS7A-17" value="Information Cascade" style="rhombus;whiteSpace=wrap;html=1;strokeWidth=1;fontSize=19;fillColor=#f5f5f5;fontColor=#333333;strokeColor=#666666;fontStyle=1" parent="1" vertex="1">
          <mxGeometry x="120" y="260" width="150" height="123" as="geometry" />
        </mxCell>
      </root>
    </mxGraphModel>
  </diagram>
</mxfile>
